# xmcd CD database file
#
# Track frame offsets:
#	150
#	28823
#	54846
#	77215
#	96847
#	117510
#	130696
#	139016
#	160462
#	181413
#
# Disc length: 2695 seconds
#
# Revision: 0
# Processed by: cddbd v1.5PL3 Copyright (c) Steve Scherf et al.
# Submitted via: CDex 1.51
#
DISCID=840a850a
DTITLE=Sojiro - Mahoroba
DYEAR=1998
DGENRE=New Age
TTITLE0=Mahoroba
TTITLE1=Subete Ha Mori No Kami Ni Makasete
TTITLE2=Umi-Yura
TTITLE3=Hana Saku Haru
TTITLE4=Hitomi -Osanaki Hitomi-
TTITLE5=Hikari Afurete
TTITLE6=Pacha Mama -Inori-
TTITLE7=Saishi -Matsuri-
TTITLE8=Mada Minu Hito He
TTITLE9=Ashita Hare
EXTD=YEAR: 1998
EXTT0=
EXTT1=
EXTT2=
EXTT3=
EXTT4=
EXTT5=
EXTT6=
EXTT7=
EXTT8=
EXTT9=
PLAYORDER=
